<svg id="undraw_Business_analytics_re_tfh3" xmlns="http://www.w3.org/2000/svg" width="804" height="472.751" viewBox="0 0 804 472.751">
  <path id="Path_47" data-name="Path 47" d="M942.02,606.595c-7.7,26.711-30.182,45.41-53.634,61.294q-4.912,3.327-9.827,6.5c-.022.01-.045.03-.068.04-.158.1-.316.2-.462.3l-2.023,1.3.368.165s.362.192-.034.031c-.118-.049-.241-.094-.359-.143C862.357,670.6,848.491,664.7,838.05,654.4c-10.831-10.689-17.16-27.455-11.3-41.5a26.81,26.81,0,0,1,2.9-5.211c.476-.681.988-1.332,1.521-1.972a28.738,28.738,0,0,1,49.358,8.733c1.723-16.042-11.5-29.48-24.235-39.394s-27.207-20.7-29.669-36.655c-1.375-8.876,1.712-17.478,7.334-24.383.174-.21.348-.419.527-.623a41.94,41.94,0,0,1,26.957-14.462c19.528-2.03,38.5,8.307,52.684,21.885C936.969,542.669,950.773,576.224,942.02,606.595Z" transform="translate(-163.637 -206.173)" fill="#f2f2f2"/>
  <path id="Path_48" data-name="Path 48" d="M904.631,569.714a71.3,71.3,0,0,1,8.542,18.839,61.9,61.9,0,0,1,2.14,18.284,79.318,79.318,0,0,1-10.389,36.1A114.154,114.154,0,0,1,887.7,665.946q-4.912,3.327-9.827,6.5c-.022.01-.045.03-.068.04-.158.1-.316.2-.462.3-.676.436-1.353.872-2.023,1.3,0,0,.73.358.334.2-.118-.049-.241-.094-.359-.143a62.546,62.546,0,0,0-46.323-68.4c.476-.681.988-1.332,1.521-1.972a65.978,65.978,0,0,1,10.892,4.122,64.658,64.658,0,0,1,29.234,28.185,66.105,66.105,0,0,1,7.2,36.275c.56-.507,1.12-1.026,1.664-1.539,10.353-9.652,19.548-20.731,25.771-33.517a73.79,73.79,0,0,0,7.727-34.913c-.508-13.188-5.763-25.4-13.371-36.038a154.458,154.458,0,0,0-29.278-30.174A175.508,175.508,0,0,0,833.921,513.7a1.262,1.262,0,0,1-.635-1.62,1.074,1.074,0,0,1,.527-.623.935.935,0,0,1,.811.034c1.606.739,3.2,1.489,4.784,2.271a177.5,177.5,0,0,1,36.673,24.191C886.875,547.158,897.038,557.673,904.631,569.714Z" transform="translate(-162.955 -204.23)" fill="#fff"/>
  <path id="Path_49" data-name="Path 49" d="M657.833,461.635a11.595,11.595,0,0,0,6.085-16.706l26.934-31.182-21.233-2.764L647.3,441.019a11.658,11.658,0,0,0,10.536,20.617Z" transform="translate(-191.552 -219.596)" fill="#ffb8b8"/>
  <path id="Path_50" data-name="Path 50" d="M790.131,468.308a11.595,11.595,0,0,0-2.724-17.569l8.562-40.3-19.934,7.816-5.074,37.076a11.658,11.658,0,0,0,19.171,12.982Z" transform="translate(-172.034 -219.68)" fill="#ffb8b8"/>
  <path id="Path_51" data-name="Path 51" d="M455.158,405.037H441.022L434.3,350.51H455.16Z" transform="translate(66.47 53.646)" fill="#ffb8b8"/>
  <path id="Path_52" data-name="Path 52" d="M712.926,657.115l-45.581,0v-.577a17.741,17.741,0,0,1,17.742-17.741h27.84Z" transform="translate(-187.693 -184.729)" fill="#2f2e41"/>
  <path id="Path_53" data-name="Path 53" d="M515.158,405.037H501.022L494.3,350.51H515.16Z" transform="translate(75.653 53.646)" fill="#ffb8b8"/>
  <path id="Path_54" data-name="Path 54" d="M772.926,657.115l-45.581,0v-.577a17.741,17.741,0,0,1,17.742-17.741h27.84Z" transform="translate(-178.51 -184.729)" fill="#2f2e41"/>
  <path id="Path_55" data-name="Path 55" d="M708.343,644.659l-20.011-.8a5.2,5.2,0,0,1-4.979-5.343l5.638-184.925.368-.133c35.072-12.687,64.085-11.728,88.7,2.929l.275.164,3.377,180.109a5.188,5.188,0,0,1-5.188,5.287H759.651a5.2,5.2,0,0,1-5.092-4.188L731.573,520.829a1.729,1.729,0,0,0-3.414.126L713.7,640.1a5.218,5.218,0,0,1-5.153,4.563C708.481,644.662,708.412,644.661,708.343,644.659Z" transform="translate(-185.243 -214.448)" fill="#2f2e41"/>
  <circle id="Ellipse_69" data-name="Ellipse 69" cx="28.32" cy="28.32" r="28.32" transform="translate(514.249 20.328)" fill="#ffb8b8"/>
  <path id="Path_56" data-name="Path 56" d="M665.211,451.717a5.2,5.2,0,0,1-2.41-1.944l-5.472-8.188a5.206,5.206,0,0,1,.137-5.961l22.06-29.942,13.82-66.313A16.715,16.715,0,0,1,724.5,351.5l-6.532,42.2A53.471,53.471,0,0,1,699.49,426.5l-29.04,24.369a5.2,5.2,0,0,1-4.068,1.162,5.14,5.14,0,0,1-1.171-.31Z" transform="translate(-189.359 -232.187)" fill="#675dff"/>
  <path id="Path_57" data-name="Path 57" d="M793.55,454.639a5.2,5.2,0,0,1-3.094.134l-9.518-2.531a5.206,5.206,0,0,1-3.835-4.565l-3.224-37.051-33.441-58.908a16.715,16.715,0,0,1,31.4-11.478l22.982,35.995a53.471,53.471,0,0,1,7.8,36.824l-5.7,37.479a5.187,5.187,0,0,1-3.37,4.1Z" transform="translate(-176.662 -232.104)" fill="#675dff"/>
  <path id="Path_58" data-name="Path 58" d="M696.748,332.9a48.223,48.223,0,0,1,38.67-15.635q.71.044,1.415.1h0a48.121,48.121,0,0,1,34.776,19.194,48.845,48.845,0,0,1,8.677,39.37,152.619,152.619,0,0,0,4.032,78.265l7.6,23.59a5.187,5.187,0,0,1-4.661,6.771l-38.841,2.088-9.939-17.169v17.7l-47.207,2.538c-.094.006-.187.008-.28.008a5.189,5.189,0,0,1-5.17-5.605l5.336-66.164-6.693-44.938A48.531,48.531,0,0,1,696.748,332.9Z" transform="translate(-185.156 -233.955)" fill="#675dff"/>
  <path id="Path_59" data-name="Path 59" d="M746.564,318.887c-2.622,1.509-12.986,2.509-13.725-.425l-.016-.064c-.514-2.149-.087-4.394.06-6.6s-.068-4.628-1.57-6.249c-2.8-3.022-7.78-1.42-11.828-2.184a9.99,9.99,0,0,1-7.772-10.669c.058-.458.148-.917.249-1.376A7.694,7.694,0,0,0,703.976,282c-4.091.234-8.507,1.474-11.892-1.557-2.617-2.343-3.256-8.443-2.106-11.763,1.933-5.579,14.314-8.5,19.719-10.1a46.837,46.837,0,0,1,39.7,6.514c3.414,2.407,6.6,5.431,8.058,9.346s.753,8.856-2.528,11.441a21.138,21.138,0,0,1,4.9,20.532C758.2,311.635,750.467,316.641,746.564,318.887Z" transform="translate(-184.313 -243.203)" fill="#2f2e41"/>
  <path id="Path_60" data-name="Path 60" d="M551.338,383.306H296.513a1.153,1.153,0,1,1,0-2.306H551.338a1.153,1.153,0,0,1,0,2.306Z" transform="translate(-244.626 -224.185)" fill="#e6e6e6"/>
  <path id="Path_61" data-name="Path 61" d="M488.335,383.306H343.513a1.153,1.153,0,1,1,0-2.306H488.335a1.153,1.153,0,0,1,0,2.306Z" transform="translate(-237.433 -224.185)" fill="#3f3d56"/>
  <path id="Path_62" data-name="Path 62" d="M407.513,392.948a1.153,1.153,0,0,1-1.153-1.153V319.153a1.153,1.153,0,1,1,2.306,0V391.8a1.153,1.153,0,0,1-1.153,1.153Z" transform="translate(-227.637 -233.827)" fill="#3f3d56"/>
  <path id="Path_63" data-name="Path 63" d="M470.513,402.591a1.153,1.153,0,0,1-1.153-1.153V256.153a1.153,1.153,0,1,1,2.306,0V401.438a1.153,1.153,0,0,1-1.153,1.153Z" transform="translate(-217.995 -243.469)" fill="#3f3d56"/>
  <circle id="Ellipse_70" data-name="Ellipse 70" cx="12.5" cy="12.5" r="12.5" fill="#e6e6e6"/>
  <circle id="Ellipse_71" data-name="Ellipse 71" cx="12.5" cy="12.5" r="12.5" transform="translate(0 73)" fill="#e6e6e6"/>
  <ellipse id="Ellipse_72" data-name="Ellipse 72" cx="12.5" cy="13" rx="12.5" ry="13" transform="translate(0 145)" fill="#e6e6e6"/>
  <path id="Path_64" data-name="Path 64" d="M551.338,257.306H296.513a1.153,1.153,0,1,1,0-2.306H551.338a1.153,1.153,0,0,1,0,2.306Z" transform="translate(-244.626 -243.469)" fill="#e6e6e6"/>
  <path id="Path_65" data-name="Path 65" d="M551.338,320.306H296.513a1.153,1.153,0,0,1,0-2.306H551.338a1.153,1.153,0,0,1,0,2.306Z" transform="translate(-244.626 -233.827)" fill="#e6e6e6"/>
  <circle id="Ellipse_73" data-name="Ellipse 73" cx="12.684" cy="12.684" r="12.684" transform="translate(93.974 145.285)" fill="#675dff"/>
  <ellipse id="Ellipse_74" data-name="Ellipse 74" cx="13" cy="12.5" rx="13" ry="12.5" transform="translate(167 73)" fill="#675dff"/>
  <circle id="Ellipse_75" data-name="Ellipse 75" cx="13" cy="13" r="13" transform="translate(167 145)" fill="#675dff"/>
  <circle id="Ellipse_76" data-name="Ellipse 76" cx="12.5" cy="12.5" r="12.5" transform="translate(240)" fill="#675dff"/>
  <circle id="Ellipse_77" data-name="Ellipse 77" cx="12.5" cy="12.5" r="12.5" transform="translate(240 73)" fill="#675dff"/>
  <ellipse id="Ellipse_78" data-name="Ellipse 78" cx="12.5" cy="13" rx="12.5" ry="13" transform="translate(240 145)" fill="#675dff"/>
  <path id="Path_66" data-name="Path 66" d="M1014.983,655.306H508.793a1.153,1.153,0,0,1,0-2.306h506.19a1.153,1.153,0,0,1,0,2.306Z" transform="translate(-212.136 -182.555)" fill="#3f3d56"/>
  <path id="Path_67" data-name="Path 67" d="M582.482,566.061q-1.146-.06-2.306-.061a43.816,43.816,0,0,0-43.816,43.816h46.122Z" transform="translate(-207.74 -195.87)" fill="#675dff"/>
  <path id="Path_68" data-name="Path 68" d="M590.329,666.93a45.02,45.02,0,0,1-44.969-44.969,1.153,1.153,0,0,1,1.153-1.153h44.969v-42.6a1.151,1.151,0,0,1,.359-.836,1.129,1.129,0,0,1,.854-.315,44.969,44.969,0,0,1-2.366,89.875Zm-42.647-43.816a42.663,42.663,0,1,0,46.107-43.677v42.524a1.153,1.153,0,0,1-1.153,1.153Z" transform="translate(-206.363 -194.179)" fill="#3f3d56"/>
</svg>
