<svg xmlns="http://www.w3.org/2000/svg" width="699.911" height="437.909" viewBox="0 0 699.911 437.909">
  <g id="undraw_destinations_fpv7" transform="translate(0.001 0)">
    <path id="Path_69" data-name="Path 69" d="M899.87,272.008C874.188,171.02,785.448,98.121,681.287,95.2c-55.068-1.546-113.014,16.718-155.2,80.628-75.417,114.246,4.634,193.193,60.444,230.707a349.219,349.219,0,0,1,72.182,64.877c37.7,44.734,110.219,100.323,196.59,13.224C917.9,421.5,916.979,339.276,899.87,272.008Z" transform="translate(-209.946 -95.108)" fill="#f2f2f2"/>
    <path id="Path_70" data-name="Path 70" d="M187.761,503.589c-.692-1.025-1.372-2.077-2.022-3.127l1.05-.65c.641,1.037,1.312,2.075,1.995,3.086Z" transform="translate(-91.367 -250.126)" fill="#3f3d56"/>
    <path id="Path_71" data-name="Path 71" d="M173.527,407.067c-1.144-2.246-2.208-4.566-3.161-6.9l1.142-.468c.941,2.3,1.99,4.588,3.119,6.8Zm-5.74-14.032c-.757-2.4-1.423-4.866-1.978-7.324l1.2-.272c.548,2.424,1.2,4.855,1.951,7.225Zm-3.343-14.786c-.35-2.49-.6-5.029-.746-7.548l1.232-.071c.143,2.485.39,4.991.735,7.447Zm.359-15.1-1.233-.029c.059-2.522.223-5.068.487-7.567l1.227.13c-.26,2.466-.422,4.978-.481,7.467Zm1.572-14.869-1.212-.23c.47-2.474,1.049-4.96,1.722-7.386l1.189.33c-.664,2.394-1.236,4.846-1.7,7.287Zm4-14.408-1.157-.427c.872-2.364,1.855-4.721,2.922-7.005l1.118.522c-1.052,2.254-2.022,4.579-2.883,6.911Zm168.988-3.814c-.965-2.287-2.038-4.565-3.191-6.768l1.094-.572c1.168,2.234,2.256,4.542,3.234,6.861ZM176.7,320.312l-1.071-.612c1.25-2.186,2.607-4.348,4.034-6.427l1.017.7C179.269,316.022,177.931,318.155,176.7,320.312ZM332.431,316.8c-1.329-2.1-2.762-4.169-4.259-6.153l.985-.743c1.518,2.011,2.97,4.109,4.317,6.236ZM185.164,307.98l-.957-.78c1.592-1.953,3.284-3.864,5.029-5.679l.889.855C188.4,304.167,186.735,306.052,185.164,307.98Zm138.258-3.111c-1.655-1.855-3.407-3.664-5.208-5.376l.85-.894c1.825,1.736,3.6,3.569,5.278,5.448ZM195.53,297.2l-.816-.925c1.888-1.667,3.869-3.276,5.887-4.782l.738.989C199.347,293.965,197.393,295.553,195.53,297.2Zm117.055-2.636c-1.936-1.56-3.96-3.059-6.016-4.454l.693-1.021c2.084,1.415,4.135,2.933,6.1,4.514Zm-105.071-6.307-.654-1.046c2.136-1.336,4.353-2.6,6.589-3.753l.566,1.1C211.808,285.69,209.621,286.936,207.513,288.254Zm92.695-2.092c-2.168-1.223-4.41-2.37-6.665-3.407l.516-1.121c2.286,1.052,4.559,2.214,6.756,3.453ZM220.8,281.4l-.474-1.139c2.325-.966,4.719-1.846,7.114-2.615l.377,1.175C225.45,279.579,223.089,280.447,220.8,281.4Zm65.822-1.488c-2.335-.848-4.736-1.608-7.136-2.26l.324-1.191c2.432.66,4.866,1.431,7.234,2.29Zm-51.592-3.081-.278-1.2c2.45-.568,4.958-1.041,7.453-1.405l.178,1.221c-2.46.36-4.934.826-7.352,1.386Zm37.158-.838c-2.439-.449-4.932-.8-7.409-1.051l.123-1.228c2.511.251,5.038.609,7.51,1.065Zm-22.363-1.324-.078-1.232c2.51-.158,5.068-.215,7.583-.169L257.3,274.5c-2.483-.046-5.005.011-7.482.167Z" transform="translate(-82.876 -163.344)" fill="#3f3d56"/>
    <path id="Path_72" data-name="Path 72" d="M453.859,380.11c-.331-1.174-.69-2.358-1.068-3.518l1.173-.383c.383,1.176.747,2.376,1.082,3.566Z" transform="translate(-193.659 -202.781)" fill="#3f3d56"/>
    <path id="Path_73" data-name="Path 73" d="M441.561,268.219h-1.234c0-1.235.022-2.488.065-3.723l1.233.043C441.582,265.761,441.561,267,441.561,268.219Z" transform="translate(-188.885 -159.99)" fill="#3f3d56"/>
    <path id="Path_74" data-name="Path 74" d="M442.517,194.259l-1.227-.131c.265-2.485.622-4.99,1.063-7.446l1.215.218C443.132,189.327,442.778,191.8,442.517,194.259Zm2.627-14.623-1.2-.3c.618-2.422,1.332-4.85,2.121-7.217l1.171.39c-.781,2.34-1.486,4.738-2.1,7.132Zm196.787-13.018c-.922-2.29-1.94-4.574-3.025-6.79l1.109-.542c1.1,2.242,2.127,4.554,3.061,6.871Zm-192.083-1.081-1.139-.474c.96-2.306,2.016-4.608,3.141-6.842l1.1.555c-1.111,2.208-2.156,4.482-3.1,6.761ZM635.4,153.272c-1.241-2.132-2.575-4.248-3.966-6.288l1.019-.7c1.408,2.064,2.758,4.205,4.013,6.363Zm-178.868-1.016-1.059-.632c1.279-2.142,2.654-4.269,4.087-6.319l1.012.707c-1.416,2.026-2.775,4.128-4.039,6.245ZM627.03,141c-1.534-1.937-3.156-3.841-4.821-5.66l.91-.833c1.685,1.841,3.326,3.767,4.879,5.727Zm-161.983-.924-.959-.777c1.574-1.941,3.237-3.849,4.944-5.671l.9.843C468.246,136.267,466.6,138.153,465.047,140.071ZM617,130.033c-1.794-1.7-3.67-3.353-5.577-4.918l.782-.954c1.93,1.583,3.829,3.257,5.644,4.976ZM475.2,129.224l-.839-.906c1.832-1.7,3.749-3.349,5.7-4.911l.772.963c-1.926,1.544-3.821,3.177-5.631,4.853Zm130.3-8.617c-2.016-1.426-4.109-2.8-6.22-4.074l.639-1.056c2.136,1.292,4.254,2.679,6.294,4.122ZM486.8,119.931l-.7-1.015c2.054-1.418,4.186-2.78,6.337-4.048l.627,1.063c-2.125,1.253-4.232,2.6-6.262,4Zm105.992-7.016c-2.2-1.124-4.467-2.18-6.74-3.142l.481-1.136c2.3.972,4.594,2.042,6.82,3.179Zm-93.2-.526-.549-1.1c2.235-1.11,4.539-2.152,6.848-3.1l.468,1.142c-2.281.935-4.558,1.965-6.767,3.062Zm79.51-5.263c-2.334-.795-4.73-1.515-7.122-2.14l.312-1.194c2.42.632,4.845,1.361,7.207,2.165Zm-65.774-.365-.384-1.172c2.371-.777,4.8-1.478,7.228-2.083l.3,1.2c-2.4.6-4.8,1.29-7.142,2.059Zm51.4-3.394c-2.426-.45-4.9-.818-7.353-1.094l.137-1.226c2.482.279,4.986.651,7.441,1.106Zm-36.982-.2-.211-1.216c2.458-.428,4.965-.772,7.451-1.024l.124,1.228c-2.457.248-4.934.589-7.363,1.012Zm22.216-1.456c-2.471-.1-4.983-.114-7.435-.04l-.037-1.233c2.482-.074,5.022-.061,7.523.041Z" transform="translate(-189.253 -97.13)" fill="#3f3d56"/>
    <path id="Path_75" data-name="Path 75" d="M771.692,222.478c-.33-1.174-.687-2.36-1.059-3.524l1.175-.376c.377,1.178.738,2.377,1.072,3.566Z" transform="translate(-315.405 -142.402)" fill="#3f3d56"/>
    <ellipse id="Ellipse_79" data-name="Ellipse 79" cx="20.552" cy="1.541" rx="20.552" ry="1.541" transform="translate(75.119 265.695)" fill="#675dff"/>
    <ellipse id="Ellipse_80" data-name="Ellipse 80" cx="20.552" cy="1.541" rx="20.552" ry="1.541" transform="translate(239.025 191.193)" fill="#675dff"/>
    <ellipse id="Ellipse_81" data-name="Ellipse 81" cx="20.552" cy="1.541" rx="20.552" ry="1.541" transform="translate(441.467 113.607)" fill="#675dff"/>
    <rect id="Rectangle_55" data-name="Rectangle 55" width="87.4" height="1.234" transform="translate(392.077 171.888) rotate(-45)" fill="#3f3d56"/>
    <rect id="Rectangle_56" data-name="Rectangle 56" width="103.79" height="1.234" transform="translate(270.368 179.785)" fill="#3f3d56"/>
    <rect id="Rectangle_57" data-name="Rectangle 57" width="82.096" height="1.234" transform="translate(193.376 246.248) rotate(-45)" fill="#3f3d56"/>
    <rect id="Rectangle_58" data-name="Rectangle 58" width="69.365" height="1.234" transform="translate(106.462 254.288)" fill="#3f3d56"/>
    <rect id="Rectangle_59" data-name="Rectangle 59" width="97.479" height="1.234" transform="translate(18.679 331.028) rotate(-45)" fill="#3f3d56"/>
    <path id="Path_76" data-name="Path 76" d="M180.765,512.6a11.407,11.407,0,1,1,11.407-11.407A11.407,11.407,0,0,1,180.765,512.6Zm0-21.58a10.173,10.173,0,1,0,10.173,10.173,10.173,10.173,0,0,0-10.173-10.173Z" transform="translate(-85.093 -246.284)" fill="#3f3d56"/>
    <path id="Path_77" data-name="Path 77" d="M328.172,512.6a11.407,11.407,0,1,1,11.407-11.407A11.407,11.407,0,0,1,328.172,512.6Zm0-21.58a10.173,10.173,0,1,0,10.173,10.173,10.173,10.173,0,0,0-10.173-10.173Z" transform="translate(-141.555 -246.284)" fill="#3f3d56"/>
    <path id="Path_78" data-name="Path 78" d="M446.431,391.838a11.407,11.407,0,1,1,11.407-11.407A11.407,11.407,0,0,1,446.431,391.838Zm0-21.58A10.173,10.173,0,1,0,456.6,380.431,10.173,10.173,0,0,0,446.431,370.258Z" transform="translate(-186.854 -200.029)" fill="#3f3d56"/>
    <path id="Path_79" data-name="Path 79" d="M649.637,391.838a11.407,11.407,0,1,1,11.407-11.407A11.407,11.407,0,0,1,649.637,391.838Zm0-21.58a10.173,10.173,0,1,0,10.173,10.173A10.173,10.173,0,0,0,649.637,370.258Z" transform="translate(-264.689 -200.029)" fill="#3f3d56"/>
    <path id="Path_80" data-name="Path 80" d="M774.559,266.084a11.407,11.407,0,1,1,11.407-11.407A11.407,11.407,0,0,1,774.559,266.084Zm0-21.58a10.173,10.173,0,1,0,10.173,10.173A10.173,10.173,0,0,0,774.559,244.5Z" transform="translate(-312.539 -151.86)" fill="#3f3d56"/>
    <path id="Path_81" data-name="Path 81" d="M44.183,649.177A11.407,11.407,0,1,1,55.59,637.77,11.407,11.407,0,0,1,44.183,649.177Zm0-21.58a10.173,10.173,0,1,0,10.173,10.173A10.173,10.173,0,0,0,44.183,627.6Z" transform="translate(-32.777 -298.6)" fill="#3f3d56"/>
    <path id="Path_82" data-name="Path 82" d="M175.087,399.173a20.552,20.552,0,0,0-20.552,20.552c0,11.351,20.552,48.812,20.552,48.812s20.552-37.461,20.552-48.812A20.552,20.552,0,0,0,175.087,399.173Zm0,31.343a10.79,10.79,0,1,1,10.79-10.79,10.79,10.79,0,0,1-10.79,10.79Z" transform="translate(-79.415 -211.577)" fill="#675dff"/>
    <path id="Path_83" data-name="Path 83" d="M440.753,274.251A20.552,20.552,0,0,0,420.2,294.8c0,11.351,20.552,48.812,20.552,48.812s20.552-37.461,20.552-48.812a20.553,20.553,0,0,0-20.553-20.553Zm0,31.343a10.79,10.79,0,1,1,10.79-10.79,10.79,10.79,0,0,1-10.79,10.79Z" transform="translate(-181.176 -163.727)" fill="#675dff"/>
    <rect id="Rectangle_60" data-name="Rectangle 60" width="279.813" height="1.507" transform="translate(383.241 436.401)" fill="#2f2e41"/>
    <path id="Path_84" data-name="Path 84" d="M997.61,152.258c-4.35,12.879-11.02,24.615-24.615,24.615s-23.849-11.042-24.615-24.615c-.979-17.343,10.707-24.686,24.615-24.615C989.423,127.728,1002.774,136.973,997.61,152.258Z" transform="translate(-383.467 -107.57)" fill="#2f2e41"/>
    <rect id="Rectangle_61" data-name="Rectangle 61" width="48.582" height="61.537" transform="translate(564.914 42.744)" fill="#2f2e41"/>
    <path id="Path_85" data-name="Path 85" d="M1027.189,238.7h4.132a36.786,36.786,0,0,1,5.51,30.3c-4.591,17.447-.918,20.661-.918,20.661s5.977,18.893-.451,47.36,5.96,36.2,5.96,36.2l-11.478-22.956-6.428-60.605Z" transform="translate(-412.269 -150.109)" fill="#575a89"/>
    <path id="Path_86" data-name="Path 86" d="M1027.189,241.146h4.132a36.786,36.786,0,0,1,5.51,30.3c-4.591,17.447-.918,20.661-.918,20.661s5.977,18.893-.451,47.359,5.96,36.2,5.96,36.2l-11.478-22.956-6.428-60.605Z" transform="translate(-412.269 -151.046)" opacity="0.1"/>
    <path id="Path_87" data-name="Path 87" d="M990.352,202.558s-3.673,14.692-1.837,14.692,8.264,7.805,8.264,7.805l4.132,15.151L997.7,251.226l-11.019-2.3-13.774-15.151-4.132-4.132L965.1,216.332s4.591-5.51,1.377-10.1S990.352,202.558,990.352,202.558Z" transform="translate(-389.893 -136.237)" fill="#fbbebe"/>
    <path id="Path_88" data-name="Path 88" d="M990.352,202.558s-3.673,14.692-1.837,14.692,8.264,7.805,8.264,7.805l4.132,15.151L997.7,251.226l-11.019-2.3-13.774-15.151-4.132-4.132L965.1,216.332s4.591-5.51,1.377-10.1S990.352,202.558,990.352,202.558Z" transform="translate(-389.893 -136.237)" opacity="0.1"/>
    <path id="Path_89" data-name="Path 89" d="M806.914,247.833l-10.1-16.528s-10.9-24.125-18.709-15.4,11.822,26.42,11.822,26.42l10.1,13.315Z" transform="translate(-317.564 -140.649)" fill="#fbbebe"/>
    <path id="Path_90" data-name="Path 90" d="M1007.893,494.639l-7.348,53.718s.918,4.132-8.264,19.283S958.3,615.849,958.3,615.849l-7.346-13.774s8.724-43.617,23.875-52.8L973,483.16Z" transform="translate(-384.477 -243.747)" fill="#fbbebe"/>
    <path id="Path_91" data-name="Path 91" d="M1007.893,494.639l-7.348,53.718s.918,4.132-8.264,19.283S958.3,615.849,958.3,615.849l-7.346-13.774s8.724-43.617,23.875-52.8L973,483.16Z" transform="translate(-384.477 -243.747)" opacity="0.1"/>
    <path id="Path_92" data-name="Path 92" d="M936.423,666.973l10.1,19.283s-8.264,23.416-5.05,25.711,7.346,22.956-1.377,20.661-15.61-11.478-15.61-12.856,5.05-20.661,2.3-25.252-4.591-5.969-4.591-5.969L915.3,700.03l-2.3-1.377,11.478-19.284s1.377-3.673,6.887-5.969Z" transform="translate(-369.94 -314.155)" fill="#2f2e41"/>
    <path id="Path_93" data-name="Path 93" d="M936.423,666.973l10.1,19.283s-8.264,23.416-5.05,25.711,7.346,22.956-1.377,20.661-15.61-11.478-15.61-12.856,5.05-20.661,2.3-25.252-4.591-5.969-4.591-5.969L915.3,700.03l-2.3-1.377,11.478-19.284s1.377-3.673,6.887-5.969Z" transform="translate(-369.94 -314.155)" opacity="0.1"/>
    <path id="Path_94" data-name="Path 94" d="M964.269,487.018s3.566,50.78-4.239,64.094v66.115L949.47,618.6s-21.326-35-13.52-69.437-8.059-66.005-8.059-66.005Z" transform="translate(-375.641 -243.748)" fill="#fbbebe"/>
    <circle id="Ellipse_82" data-name="Ellipse 82" cx="19.283" cy="19.283" r="19.283" transform="translate(566.713 39.003)" fill="#fbbebe"/>
    <path id="Path_95" data-name="Path 95" d="M934.949,252.146l-19.284-24.334-11.019-7.346-4.593,5.969L887.2,230.107s-8.264,1.837-16.988,11.937-24.334,16.069-24.334,16.069l-12.856-2.3s-15.151-6.887-15.151-8.723-13.315,12.4-10.1,17.906,10.1,12.4,13.774,16.07,5.05,14.233,27.548,11.019,30.762-14.233,30.762-14.233,4.132,21.12,16.069,25.252S946.884,310,946.884,310l8.264-27.548s9.183-11.937-3.214-29.384a115.144,115.144,0,0,0-1.571-16.251c-.518-2.525-1.2-4.557-2.1-5.329-3.214-2.755-20.2-7.346-20.2-7.346s2.755,9.183,4.132,9.642S936.781,249.85,934.949,252.146Z" transform="translate(-329.438 -143.125)" fill="#575a89"/>
    <path id="Path_96" data-name="Path 96" d="M909.27,438.861c23.122-1.607,36.583,2.181,42.589,5.069a15.229,15.229,0,0,1,3.131,1.9c.441.372.652.661.652.836,0,1.377,31.68,4.132,43.158,1.377S991,386.062,985.945,381.011s-2.328-23.535-2.328-23.535-10.069-2.176-12.823-1.258-16.988-1.377-22.038-4.132-11.478-.918-15.61-1.837c-1.846-.409-2.778.28-3.242,1.171a7.937,7.937,0,0,1-3.14,3.173c-9.747,5.615-17.571,44.439-23.462,65.9C896.874,443.912,909.27,438.861,909.27,438.861Z" transform="translate(-365.514 -192.791)" fill="#2f2e41"/>
    <path id="Path_97" data-name="Path 97" d="M973.188,693.763l1.837,10.1s9.644,13.774,6.887,25.252c0,0,2.3,15.151,10.56,19.283s1.377,13.774-6.428,13.315-15.151.459-16.069-1.836-6.428-24.793-6.428-24.793l-1.507,26.326-4.591.459,1.507-30.458s-3.673-6.887,1.377-18.365l-1.275-17.619S971.811,698.354,973.188,693.763Z" transform="translate(-386.962 -324.417)" fill="#2f2e41"/>
    <path id="Path_98" data-name="Path 98" d="M983.154,484.622a15.217,15.217,0,0,1,3.131,1.9c.243-4.339,1.648-30.578-.037-30.156Z" transform="translate(-396.809 -233.483)" opacity="0.1"/>
    <path id="Path_99" data-name="Path 99" d="M954.551,145.39s-.214-1.189-8.566,1.943-13.359,26.245-9.182,39.818c1.683,5.47.314,9.413-1.92,12.172-8.385,10.354-5.084,25.906,7.129,31.231q.517.225,1.055.446l5.22,3.132s-6.655-8.756-3.324-19.957a57.427,57.427,0,0,0,1.036-29.4c-.382-1.64-.816-3.331-1.309-5.056-4.176-14.616-2.145-12.928,12.471-27.545,0,0,8.352,6.264,15.66,9.4s13.572,6.264,8.352,16.7-17.748,19.837-9.4,33.409,9.4,8.352,8.352,13.572h0l-1.044,5.22,6.264-6.264-4.176,8.352s13.572,0,17.748-10.44l2.088,2.088s8.352-14.616-7.308-28.189c0,0-5.22-3.132,2.088-13.572s1.7-32.887-7.7-37.063S954.551,145.39,954.551,145.39Z" transform="translate(-376.538 -113.657)" fill="#2f2e41"/>
    <circle id="Ellipse_83" data-name="Ellipse 83" cx="9.716" cy="9.716" r="9.716" transform="translate(579.812 5.822)" fill="#2f2e41"/>
    <path id="Path_100" data-name="Path 100" d="M968.208,105.863a9.717,9.717,0,0,1,8.744-9.667c-.319-.032-.643-.049-.971-.049a9.716,9.716,0,1,0,0,19.433c.328,0,.652-.017.972-.049A9.717,9.717,0,0,1,968.208,105.863Z" transform="translate(-390.339 -95.506)" fill="#2f2e41"/>
    <path id="Path_101" data-name="Path 101" d="M768.881,154.326a20.552,20.552,0,0,0-20.552,20.552c0,11.351,20.552,48.812,20.552,48.812s20.552-37.461,20.552-48.812a20.552,20.552,0,0,0-20.552-20.552Zm0,31.343a10.79,10.79,0,1,1,10.79-10.79,10.79,10.79,0,0,1-10.79,10.79Z" transform="translate(-306.861 -117.791)" fill="#675dff"/>
    <circle id="Ellipse_84" data-name="Ellipse 84" cx="11.121" cy="11.121" r="11.121" transform="translate(285.217 396.704)" fill="#f1f1f1"/>
    <circle id="Ellipse_85" data-name="Ellipse 85" cx="11.121" cy="11.121" r="11.121" transform="translate(354.408 349.664)" fill="#f1f1f1"/>
    <circle id="Ellipse_86" data-name="Ellipse 86" cx="11.121" cy="11.121" r="11.121" transform="translate(268.843 305.863)" fill="#f1f1f1"/>
  </g>
</svg>
