<svg xmlns="http://www.w3.org/2000/svg" width="888" height="460.528" viewBox="0 0 888 460.528">
  <g id="undraw_factory_dy0a" transform="translate(0 0.002)">
    <path id="Path_26" data-name="Path 26" d="M369.7,672.443l-21.874-34.714,21.885,38.5.012,3.955q2.341-.027,4.634-.179l-1.784-50.812.023-.393-.04-.075-.17-4.8,22.872-38.046-22.9,34.451-.069,1.017-1.348-38.391,19.662-39.364L370.793,576.2l-.922-79.573,0-.265,0,.261-.449,62.738-18.788-25.1,18.805,30.506.087,34.362-17.433-33.187,17.443,38.239.048,19.107-25.323-46.208L369.6,629.956Z" transform="translate(-156 -219.737)" fill="#e2e2e2"/>
    <path id="Path_27" data-name="Path 27" d="M557.413,672.443l-21.875-34.714,21.885,38.5.012,3.955q2.341-.027,4.634-.179l-1.784-50.812.023-.393-.04-.075-.17-4.8,22.872-38.047-22.9,34.451-.068,1.017-1.348-38.391,19.662-39.364L558.5,576.2l-.922-79.573,0-.265,0,.261-.449,62.738-18.788-25.1,18.805,30.506.087,34.362L539.8,565.944l17.443,38.239.048,19.107-25.323-46.208,25.343,52.874Z" transform="translate(-156 -219.737)" fill="#e2e2e2"/>
    <path id="Path_28" data-name="Path 28" d="M181.811,674.676l-15.8-25.067,15.8,27.8.008,2.856q1.69-.02,3.346-.13l-1.288-36.691.017-.284-.029-.054-.123-3.467,16.516-27.473-16.533,24.877-.049.734-.973-27.722,14.2-28.424L182.6,605.182l-.666-57.459,0-.191,0,.188-.324,45.3L168.038,574.9l13.579,22.028.063,24.813-12.588-23.964,12.6,27.612.035,13.8-18.286-33.366,18.3,38.18Z" transform="translate(-156 -219.737)" fill="#e2e2e2"/>
    <path id="Path_29" data-name="Path 29" d="M1013.95,672.443l-21.874-34.714,21.885,38.5.012,3.955q2.341-.027,4.634-.179l-1.784-50.812.023-.393-.04-.075-.17-4.8,22.872-38.046-22.9,34.451-.068,1.017L1015.2,582.95l19.662-39.364L1015.042,576.2l-.922-79.573,0-.265,0,.261-.449,62.738-18.788-25.1,18.805,30.506.087,34.362-17.433-33.187,17.443,38.239.048,19.107L988.5,577.081l25.343,52.874Z" transform="translate(-156 -219.737)" fill="#e2e2e2"/>
    <rect id="Rectangle_17" data-name="Rectangle 17" width="118" height="5" transform="translate(382.714 400.295) rotate(180)" fill="#675dff"/>
    <rect id="Rectangle_18" data-name="Rectangle 18" width="118" height="5" transform="translate(376.714 395.295) rotate(180)" fill="#675dff"/>
    <rect id="Rectangle_19" data-name="Rectangle 19" width="118" height="5" transform="translate(383.714 390.295) rotate(180)" fill="#675dff"/>
    <rect id="Rectangle_20" data-name="Rectangle 20" width="118" height="5" transform="translate(395.714 385.295) rotate(180)" fill="#675dff"/>
    <rect id="Rectangle_21" data-name="Rectangle 21" width="4.097" height="29.088" transform="translate(181.41 387.289) rotate(180)" fill="#3f3d56"/>
    <rect id="Rectangle_22" data-name="Rectangle 22" width="4.097" height="163.621" transform="translate(178.842 361.628) rotate(-112.092)" fill="#3f3d56"/>
    <rect id="Rectangle_23" data-name="Rectangle 23" width="35.644" height="13.93" transform="translate(137.163 430.716) rotate(180)" fill="#3f3d56"/>
    <rect id="Rectangle_24" data-name="Rectangle 24" width="175.76" height="15.568" transform="translate(280.556 444.646) rotate(180)" fill="#3f3d56"/>
    <path id="Path_30" data-name="Path 30" d="M133.68,436.862h42.2V383.806H144.332L133.68,410.565Z" fill="#e2e2e2"/>
    <rect id="Rectangle_25" data-name="Rectangle 25" width="18.027" height="18.027" transform="translate(169.324 405.11) rotate(180)" fill="#fff"/>
    <path id="Path_31" data-name="Path 31" d="M137.777,405.315h11.472V387.289h-4.917Z" fill="#fff"/>
    <rect id="Rectangle_26" data-name="Rectangle 26" width="4.097" height="7.784" transform="translate(168.504 423.137) rotate(180)" fill="#3f3d56"/>
    <path id="Path_32" data-name="Path 32" d="M297.669,618.5h.2a3.892,3.892,0,0,1,3.892,3.892h0a3.892,3.892,0,0,1-3.892,3.892h-.2V618.5Z" transform="translate(443.436 1025.042) rotate(180)" fill="#3f3d56"/>
    <path id="Path_33" data-name="Path 33" d="M450.077,648.815h.2a3.892,3.892,0,0,1,3.892,3.892h0a3.892,3.892,0,0,1-3.892,3.892h-.2v-7.784Z" transform="translate(748.25 1085.677) rotate(180)" fill="#3f3d56"/>
    <path id="Path_34" data-name="Path 34" d="M273.292,648.756a20.271,20.271,0,0,0-15.756,7.843H249.53l7.784-21.684,36.258-7.151L292.548,656.6h-3.5a20.271,20.271,0,0,0-15.756-7.843Z" transform="translate(-156 -219.737)" fill="#e2e2e2"/>
    <circle id="Ellipse_64" data-name="Ellipse 64" cx="17.822" cy="17.822" r="17.822" transform="translate(99.061 424.161)" fill="#3f3d56"/>
    <circle id="Ellipse_65" data-name="Ellipse 65" cx="9.38" cy="9.38" r="9.38" transform="translate(107.503 432.603)" fill="#e2e2e2"/>
    <circle id="Ellipse_66" data-name="Ellipse 66" cx="15.568" cy="15.568" r="15.568" transform="translate(262.326 428.464)" fill="#3f3d56"/>
    <circle id="Ellipse_67" data-name="Ellipse 67" cx="8.194" cy="8.194" r="8.194" transform="translate(269.7 435.838)" fill="#e2e2e2"/>
    <rect id="Rectangle_27" data-name="Rectangle 27" width="8.604" height="62.069" transform="translate(183.254 438.501) rotate(180)" fill="#3f3d56"/>
    <rect id="Rectangle_28" data-name="Rectangle 28" width="123.729" height="3.687" transform="translate(298.378 430.922) rotate(180)" fill="#3f3d56"/>
    <rect id="Rectangle_29" data-name="Rectangle 29" width="4.097" height="1.639" transform="translate(147.405 407.773) rotate(180)" fill="#3f3d56"/>
    <path id="Path_35" data-name="Path 35" d="M480.394,620a.41.41,0,0,1-.1-.319l5.65-53.432a.41.41,0,0,1,.406-.367h0a.41.41,0,0,1,.407.363l6.111,53.321a.41.41,0,0,1-.4.456l-11.761.111h0A.409.409,0,0,1,480.394,620Zm5.97-49.966-5.211,49.277,10.847-.1Z" transform="translate(-156 -219.737)" fill="#3f3d56"/>
    <path id="Path_36" data-name="Path 36" d="M255.88,635.705h.2a3.892,3.892,0,0,1,3.892,3.892h0a3.892,3.892,0,0,1-3.892,3.892h-.2V635.7Z" transform="matrix(0.935, 0.354, -0.354, 0.935, 86.941, -269.623)" fill="#3f3d56"/>
    <rect id="Rectangle_30" data-name="Rectangle 30" width="4.097" height="59.816" transform="translate(332.588 356.152) rotate(180)" fill="#3f3d56"/>
    <circle id="Ellipse_68" data-name="Ellipse 68" cx="5.736" cy="5.736" r="5.736" transform="translate(173.625 353.284)" fill="#3f3d56"/>
    <rect id="Rectangle_31" data-name="Rectangle 31" width="118" height="5" transform="translate(305.714 427.295) rotate(180)" fill="#675dff"/>
    <rect id="Rectangle_32" data-name="Rectangle 32" width="118" height="5" transform="translate(312.714 422.295) rotate(180)" fill="#675dff"/>
    <rect id="Rectangle_33" data-name="Rectangle 33" width="118" height="5" transform="translate(307.714 418.295) rotate(180)" fill="#675dff"/>
    <rect id="Rectangle_34" data-name="Rectangle 34" width="118" height="5" transform="translate(314.714 413.295) rotate(180)" fill="#675dff"/>
    <path id="Path_37" data-name="Path 37" d="M538.337,341.979a15.6,15.6,0,0,1,10.237,3.814,15.606,15.606,0,0,1,6.887-.3,15.66,15.66,0,0,1,28.555,8.887h-61A15.665,15.665,0,0,1,538.337,341.979Z" transform="translate(-156 -219.737)" fill="#e2e2e2"/>
    <path id="Path_38" data-name="Path 38" d="M446.572,391.327a14.744,14.744,0,0,1,9.678,3.606,14.754,14.754,0,0,1,6.511-.286,14.8,14.8,0,0,1,27,8.4H432.09A14.81,14.81,0,0,1,446.572,391.327Z" transform="translate(-156 -219.737)" fill="#e2e2e2"/>
    <path id="Path_39" data-name="Path 39" d="M354.824,309.935a15.341,15.341,0,0,1,10.069,3.752,15.351,15.351,0,0,1,6.775-.3,15.4,15.4,0,0,1,28.088,8.742h-60a15.409,15.409,0,0,1,15.068-12.2Z" transform="translate(-156 -219.737)" fill="#e2e2e2"/>
    <path id="Path_40" data-name="Path 40" d="M751,464.923v124.9h48.574V463.188l-11.276.4V438.033h-8.179l-1.348-56.6c3.3-2.151,5.623-7.258,5.623-13.222a21.671,21.671,0,0,0-.594-5.084,10.4,10.4,0,0,0,1.12-12.668A10.407,10.407,0,1,0,798.408,334.6a10.41,10.41,0,1,0-14.014-9.766c0,.152,0,.3.011.454a10.415,10.415,0,0,0-13.338,8.383,10.409,10.409,0,1,0-7.485,19.127c0,.076-.006.15-.006.227a50.6,50.6,0,0,0,3.676,8.435,21.026,21.026,0,0,0-1.074,6.745c0,5.964,2.322,11.072,5.623,13.222l-1.348,56.6h-8.178V464.52Zm30.332-119.268h.027c.15,0,.3,0,.448-.011q.141.461.322.9a10.446,10.446,0,0,0-.8-.894Z" transform="translate(-156 -219.737)" fill="#e2e2e2"/>
    <rect id="Rectangle_35" data-name="Rectangle 35" width="147.458" height="170.589" transform="translate(715.712 459) rotate(180)" fill="#3f3d56"/>
    <rect id="Rectangle_36" data-name="Rectangle 36" width="39.756" height="34.696" transform="translate(661.861 459) rotate(180)" fill="#e2e2e2"/>
    <path id="Path_41" data-name="Path 41" d="M675.111,283.692c0,.126-.01.251-.01.377a17.293,17.293,0,0,0,5.26,12.438,17.331,17.331,0,0,0,.867,1.62,35.027,35.027,0,0,0-1.79,11.241c0,13.174,6.8,23.854,15.18,23.854s15.18-10.68,15.18-23.854a36.1,36.1,0,0,0-.989-8.473,17.334,17.334,0,0,0,1.867-21.113,17.345,17.345,0,1,0,22.48-26.42A17.35,17.35,0,1,0,709.8,237.085c0,.254.009.506.019.757a17.359,17.359,0,0,0-22.23,13.971,17.348,17.348,0,1,0-12.476,31.879Zm29.627-11.911c.25,0,.5-.008.746-.019q.233.769.536,1.506a17.385,17.385,0,0,0-1.327-1.488Z" transform="translate(-156 -219.737)" fill="#e2e2e2"/>
    <path id="Path_42" data-name="Path 42" d="M685.941,451.767h17.35l-.62-26.02v-.01l-2.271-95.41a11.1,11.1,0,0,1-11.57,0l-2.27,95.41v.01Z" transform="translate(-156 -219.737)" fill="#675dff"/>
    <path id="Path_43" data-name="Path 43" d="M498.141,250.82V459h80.951V247.93l-18.791.67V206.01h-43.37v44.14Z" fill="#675dff"/>
    <path id="Path_44" data-name="Path 44" d="M881.841,283.692c0,.126-.01.251-.01.377a17.293,17.293,0,0,0,5.26,12.438,17.34,17.34,0,0,0,.867,1.62,35.027,35.027,0,0,0-1.79,11.241c0,13.174,6.8,23.854,15.18,23.854s15.18-10.68,15.18-23.854a36.111,36.111,0,0,0-.989-8.473,17.334,17.334,0,0,0,1.867-21.113,17.345,17.345,0,1,0,22.48-26.42,17.35,17.35,0,1,0-23.357-16.277c0,.254.008.506.019.757a17.359,17.359,0,0,0-22.23,13.971,17.348,17.348,0,1,0-12.476,31.879Zm29.627-11.911c.25,0,.5-.008.746-.019q.233.769.536,1.506a17.374,17.374,0,0,0-1.327-1.488Z" transform="translate(-156 -219.737)" fill="#e2e2e2"/>
    <path id="Path_45" data-name="Path 45" d="M892.674,451.767h17.348l-2.891-121.436a17.1,17.1,0,0,1-11.565,0Z" transform="translate(-156 -219.737)" fill="#675dff"/>
    <path id="Path_46" data-name="Path 46" d="M704.871,250.82V459h80.96V247.93l-6.65.24-12.15.43V206.01h-43.37v44.14Z" fill="#675dff"/>
    <rect id="Rectangle_37" data-name="Rectangle 37" width="20" height="20" transform="translate(683.983 329) rotate(180)" fill="#fff"/>
    <rect id="Rectangle_38" data-name="Rectangle 38" width="20" height="20" transform="translate(651.983 329) rotate(180)" fill="#fff"/>
    <rect id="Rectangle_39" data-name="Rectangle 39" width="20" height="20" transform="translate(619.983 329) rotate(180)" fill="#fff"/>
    <rect id="Rectangle_40" data-name="Rectangle 40" width="20" height="20" transform="translate(683.983 361) rotate(180)" fill="#fff"/>
    <rect id="Rectangle_41" data-name="Rectangle 41" width="20" height="20" transform="translate(651.983 361) rotate(180)" fill="#fff"/>
    <rect id="Rectangle_42" data-name="Rectangle 42" width="20" height="20" transform="translate(619.983 361) rotate(180)" fill="#fff"/>
    <rect id="Rectangle_43" data-name="Rectangle 43" width="20" height="20" transform="translate(683.983 393) rotate(180)" fill="#fff"/>
    <rect id="Rectangle_44" data-name="Rectangle 44" width="20" height="20" transform="translate(651.983 393) rotate(180)" fill="#fff"/>
    <rect id="Rectangle_45" data-name="Rectangle 45" width="20" height="20" transform="translate(619.983 393) rotate(180)" fill="#fff"/>
    <rect id="Rectangle_46" data-name="Rectangle 46" width="20" height="20" transform="translate(548.617 321) rotate(180)" fill="#fff"/>
    <rect id="Rectangle_47" data-name="Rectangle 47" width="20" height="20" transform="translate(548.617 353) rotate(180)" fill="#fff"/>
    <rect id="Rectangle_48" data-name="Rectangle 48" width="20" height="20" transform="translate(548.617 385) rotate(180)" fill="#fff"/>
    <rect id="Rectangle_49" data-name="Rectangle 49" width="20" height="20" transform="translate(548.617 417) rotate(180)" fill="#fff"/>
    <rect id="Rectangle_50" data-name="Rectangle 50" width="20" height="20" transform="translate(755.182 321) rotate(180)" fill="#fff"/>
    <rect id="Rectangle_51" data-name="Rectangle 51" width="20" height="20" transform="translate(755.182 353) rotate(180)" fill="#fff"/>
    <rect id="Rectangle_52" data-name="Rectangle 52" width="20" height="20" transform="translate(755.182 385) rotate(180)" fill="#fff"/>
    <rect id="Rectangle_53" data-name="Rectangle 53" width="20" height="20" transform="translate(755.182 417) rotate(180)" fill="#fff"/>
    <rect id="Rectangle_54" data-name="Rectangle 54" width="888" height="2" transform="translate(0 458.295)" fill="#3f3d56"/>
  </g>
</svg>
