<svg xmlns="http://www.w3.org/2000/svg" width="126.153" height="100.913" viewBox="0 0 126.153 100.913">
  <path id="hands-helping-solid" d="M96.173,37.863H66.212V48.9a14.192,14.192,0,0,1-28.384,0V24.932L25.035,32.62a12.588,12.588,0,0,0-6.13,10.8v9.323L3.135,61.852A6.292,6.292,0,0,0,.829,70.466L16.6,97.786a6.31,6.31,0,0,0,8.614,2.306L45.594,88.324H72.519A12.627,12.627,0,0,0,85.135,75.709h3.154A6.3,6.3,0,0,0,94.6,69.4V56.786h1.577a4.719,4.719,0,0,0,4.731-4.731V42.594A4.719,4.719,0,0,0,96.173,37.863Zm29.114-7.372L109.517,3.171A6.31,6.31,0,0,0,100.9.865L80.522,12.633H60.377A12.71,12.71,0,0,0,53.7,14.545l-6.6,4.12a6.265,6.265,0,0,0-2.957,5.342V48.9a7.885,7.885,0,0,0,15.769,0V31.555H96.173a11.045,11.045,0,0,1,11.038,11.038v5.618L122.98,39.1A6.314,6.314,0,0,0,125.287,30.491Z" transform="translate(0.023 -0.022)" fill="#fff"/>
</svg>
