<svg xmlns="http://www.w3.org/2000/svg" width="102.023" height="102.023" viewBox="0 0 102.023 102.023">
  <path id="bx-directions" d="M102.906,62.576,92.7,49.823A5.1,5.1,0,0,0,88.72,47.91H58.113v-10.2H88.72a10.213,10.213,0,0,0,10.2-10.2V12.2A10.213,10.213,0,0,0,88.72,2H17.3a5.1,5.1,0,0,0-3.984,1.913L3.117,16.666a5.108,5.108,0,0,0,0,6.376L13.319,35.8A5.1,5.1,0,0,0,17.3,37.708H47.91v10.2H17.3a10.213,10.213,0,0,0-10.2,10.2v15.3a10.213,10.213,0,0,0,10.2,10.2H47.91v20.4h10.2v-20.4H88.72A5.1,5.1,0,0,0,92.7,81.705l10.2-12.753A5.108,5.108,0,0,0,102.906,62.576ZM13.636,19.854,19.752,12.2H88.72l.01,15.3H19.752ZM86.271,73.416H17.3v-15.3H86.271l6.121,7.652Z" transform="translate(-2 -2)" fill="#fff"/>
</svg>
